<svg xmlns="http://www.w3.org/2000/svg" viewBox="0 0 32 40" x="0px" y="0px"><g><path d="M4.459,30.84082a2.48926,2.48926,0,0,1-2.48434-2.57375A13.98385,13.98385,0,0,1,6.83105,17.57861a3.658,3.658,0,0,1,4.13672-.3164,10.41935,10.41935,0,0,0,10.05469.00537,3.65825,3.65825,0,0,1,4.14649.311,14.01805,14.01805,0,0,1,4.85742,10.74268,2.37784,2.37784,0,0,1-.67578,1.74463,2.51733,2.51733,0,0,1-1.81934.7749Zm4.62891-12.0752a1.46515,1.46515,0,0,0-.958.334,12.02046,12.02046,0,0,0-4.15625,9.21387.46884.46884,0,0,0,.48924.52737l23.07131,0a.46568.46568,0,0,0,.49317-.47459,12.05571,12.05571,0,0,0-4.15723-9.26662h0a1.65156,1.65156,0,0,0-1.86524-.09033,12.46582,12.46582,0,0,1-12.01953-.00537A1.855,1.855,0,0,0,9.08789,18.76562ZM16,15.49561A6.99862,6.99862,0,0,1,8.877,8.32666c.03116-9.15261,13.73979-9.85775,14.29114.001A7.17631,7.17631,0,0,1,16,15.49561ZM16,3.15918a4.99552,4.99552,0,0,0-5.123,5.16748c-.08024,6.54712,9.94583,7.1283,10.2911.00089A5.17405,5.17405,0,0,0,16,3.15918Z"/></g><text x="0" y="47" fill="#000000" font-size="5px" font-weight="bold" font-family="'Helvetica Neue', Helvetica, Arial-Unicode, Arial, Sans-serif">Created by komsiatun</text><text x="0" y="52" fill="#000000" font-size="5px" font-weight="bold" font-family="'Helvetica Neue', Helvetica, Arial-Unicode, Arial, Sans-serif">from the Noun Project</text></svg>